<svg width="237" height="29" viewBox="0 0 237 29" fill="none" xmlns="http://www.w3.org/2000/svg">
<rect opacity="0.4" x="1" y="4" width="232" height="21" fill="#04274C"/>
<rect opacity="0.4" x="126.022" y="4" width="6.44444" height="21" fill="#496B90" fill-opacity="0.374208"/>
<rect opacity="0.4" x="118.289" y="4" width="6.44444" height="21" fill="#496B90" fill-opacity="0.374208"/>
<rect opacity="0.4" x="109.267" y="4" width="6.44444" height="21" fill="#496B90" fill-opacity="0.374208"/>
<rect opacity="0.4" x="101.533" y="4" width="6.44444" height="21" fill="#496B90" fill-opacity="0.374208"/>
<rect opacity="0.4" x="92.5112" y="4" width="6.44444" height="21" fill="#496B90" fill-opacity="0.374208"/>
<rect opacity="0.4" x="84.7778" y="4" width="6.44444" height="21" fill="#496B90" fill-opacity="0.374208"/>
<rect opacity="0.4" x="75.7556" y="4" width="6.44444" height="21" fill="#496B90" fill-opacity="0.374208"/>
<rect opacity="0.4" x="68.0222" y="4" width="6.44444" height="21" fill="#496B90" fill-opacity="0.374208"/>
<rect opacity="0.4" x="59" y="4" width="6.44444" height="21" fill="#496B90" fill-opacity="0.374208"/>
<rect opacity="0.4" x="51.2666" y="4" width="6.44444" height="21" fill="#496B90" fill-opacity="0.374208"/>
<rect opacity="0.4" x="42.2444" y="4" width="6.44444" height="21" fill="#496B90" fill-opacity="0.374208"/>
<rect opacity="0.4" x="34.5112" y="4" width="6.44444" height="21" fill="#496B90" fill-opacity="0.374208"/>
<rect opacity="0.4" x="25.4888" y="4" width="6.44444" height="21" fill="#496B90" fill-opacity="0.374208"/>
<rect opacity="0.4" x="17.7556" y="4" width="6.44444" height="21" fill="#496B90" fill-opacity="0.374208"/>
<rect opacity="0.4" x="8.7334" y="4" width="6.44444" height="21" fill="#496B90" fill-opacity="0.374208"/>
<rect opacity="0.4" x="1" y="4" width="6.44444" height="21" fill="#496B90" fill-opacity="0.374208"/>
<path opacity="0.5" d="M4.86667 4H1.47707L1 4.31709V6" stroke="#32F1FF" stroke-linecap="round" stroke-linejoin="round"/>
<path opacity="0.5" d="M4.86667 25H1.47707L1 24.6829V23" stroke="#32F1FF" stroke-linecap="round" stroke-linejoin="round"/>
<path opacity="0.5" d="M233 4H235.634L236 4.31736V6" stroke="#32F1FF" stroke-linecap="round" stroke-linejoin="round"/>
<path opacity="0.5" d="M233 25H235.63L236 24.6829V23" stroke="#32F1FF" stroke-linecap="round" stroke-linejoin="round"/>
<rect opacity="0.4" x="140" y="4" width="5" height="21" fill="#496B90" fill-opacity="0.374208"/>
<rect opacity="0.4" x="153" y="4" width="5" height="21" fill="#496B90" fill-opacity="0.374208"/>
<rect opacity="0.4" x="166" y="4" width="5" height="21" fill="#496B90" fill-opacity="0.374208"/>
<rect opacity="0.4" x="179" y="4" width="5" height="21" fill="#496B90" fill-opacity="0.374208"/>
<rect opacity="0.4" x="192" y="4" width="5" height="21" fill="#496B90" fill-opacity="0.374208"/>
<rect opacity="0.4" x="205" y="4" width="5" height="21" fill="#496B90" fill-opacity="0.374208"/>
<rect opacity="0.4" x="218" y="4" width="5" height="21" fill="#496B90" fill-opacity="0.374208"/>
<rect opacity="0.4" x="231" y="4" width="5" height="21" fill="#496B90" fill-opacity="0.374208"/>
<rect opacity="0.4" x="134" y="4" width="5" height="21" fill="#496B90" fill-opacity="0.374208"/>
<rect opacity="0.4" x="147" y="4" width="5" height="21" fill="#496B90" fill-opacity="0.374208"/>
<rect opacity="0.4" x="160" y="4" width="5" height="21" fill="#496B90" fill-opacity="0.374208"/>
<rect opacity="0.4" x="173" y="4" width="5" height="21" fill="#496B90" fill-opacity="0.374208"/>
<rect opacity="0.4" x="186" y="4" width="5" height="21" fill="#496B90" fill-opacity="0.374208"/>
<rect opacity="0.4" x="199" y="4" width="5" height="21" fill="#496B90" fill-opacity="0.374208"/>
<rect opacity="0.4" x="212" y="4" width="5" height="21" fill="#496B90" fill-opacity="0.374208"/>
<rect opacity="0.4" x="225" y="4" width="5" height="21" fill="#496B90" fill-opacity="0.374208"/>
</svg>
